# xmcd
#
# Track frame offsets:
#     182
#     25015
#     27445
#     37650
#     63135
#     69295
#     89030
#     98805
#     125502
#     127192
#     134705
#     138080
#     156010
#     156887
#     159137
#     165437
#     190522
#     192417
#     196532
#     218985
#     222160
#     226397
#     246267
#     250940
#     255620
#     257355
#     265722
#     283682
#     286462
#
# Disc length: 4025 seconds
#
# Revision: 0
# Processed by: cddbd v1.5.2PL0 Copyright (c) Steve Scherf et al.
# Submitted via: gnudb v1.0.0
#
DISCID=940fb71d
DTITLE=Johann Sebastian Bach / Christmas Oratorio (2 Gardiner)
DYEAR=1987
DGENRE=baroque
TTITLE0=Christmas Oratorio, BWV 248: Part IV - For New Year's Day: no. 36 Chorus: "Fallt mit Danken, fallt mit Loben"
TTITLE1=Christmas Oratorio, BWV 248: Part IV - For New Year's Day: no. 37 Recitative: "Und da acht Tage um waren"
TTITLE2=Christmas Oratorio, BWV 248: Part IV - For New Year's Day: no. 38 Recitative & Chorale: "Immanuel, o süßes Wort"
TTITLE3=Christmas Oratorio, BWV 248: Part IV - For New Year's Day: no. 39 Aria: "Flößt, mein Heiland, flößt dein Namen"
TTITLE4=Christmas Oratorio, BWV 248: Part IV - For New Year's Day: no. 40 Recitative & Chorale: "Wohlan, dein Name soll allein"
TTITLE5=Christmas Oratorio, BWV 248: Part IV - For New Year's Day: no. 41 Aria: "Ich will nur dir zu Ehren leben"
TTITLE6=Christmas Oratorio, BWV 248: Part IV - For New Year's Day: no. 42 Choral: "Jesus richte mein Beginnen"
TTITLE7=Christmas Oratorio, BWV 248: Part V - For the First Sunday in the New Year: no. 43 Chorus: "Ehre sei dir, Gott, 
TTITLE7=gesungen"
TTITLE8=Christmas Oratorio, BWV 248: Part V - For the First Sunday in the New Year: no. 44 Recitative: "Da Jesu geboren war 
TTITLE8=zu Bethlehem"
TTITLE9=Christmas Oratorio, BWV 248: Part V - For the First Sunday in the New Year: no. 45 Chorus: "Wo is der neugeborene 
TTITLE9=König der Jüden"
TTITLE10=Christmas Oratorio, BWV 248: Part V - For the First Sunday in the New Year: no. 46 Choral: "Dein Glanz all Finsternis 
TTITLE10=verzehrt"
TTITLE11=Christmas Oratorio, BWV 248: Part V - For the First Sunday in the New Year: no. 47 Aria: "Erleucht auch meine finstre 
TTITLE11=Sinnen"
TTITLE12=Christmas Oratorio, BWV 248: Part V - For the First Sunday in the New Year: no. 48 Recitative: "Da das der König 
TTITLE12=Herodes hörte"
TTITLE13=Christmas Oratorio, BWV 248: Part V - For the First Sunday in the New Year: no. 49 Recitative: "Warum wollt ihr 
TTITLE13=erschrecken"
TTITLE14=Christmas Oratorio, BWV 248: Part V - For the First Sunday in the New Year: no. 50 Recitative: "Und ließ versammlen 
TTITLE14=alle Hohepriester"
TTITLE15=Christmas Oratorio, BWV 248: Part V - For the First Sunday in the New Year: no. 51 Trio: "Ach, wenn wird die Zeit 
TTITLE15=erscheinen"
TTITLE16=Christmas Oratorio, BWV 248: Part V - For the First Sunday in the New Year: no. 52 Recitative: "Mein Liebster 
TTITLE16=herrschet schon"
TTITLE17=Christmas Oratorio, BWV 248: Part V - For the First Sunday in the New Year: no. 53 Chorale: "Zwar ist solche 
TTITLE17=Herzensstube"
TTITLE18=Christmas Oratorio, BWV 248: Part VI - For the Feast of Epiphany: no. 54 Chorus: "Herr, wenn die stolzen Feinde 
TTITLE18=schnauben"
TTITLE19=Christmas Oratorio, BWV 248: Part VI - For the Feast of Epiphany: no. 55 Recitative: "Da berief Herodes die Weisen 
TTITLE19=heimlish"
TTITLE20=Christmas Oratorio, BWV 248: Part VI - For the Feast of Epiphany: no. 56 Recitative: "Du Falscher, suche nur den 
TTITLE20=Herrn zu fällen"
TTITLE21=Christmas Oratorio, BWV 248: Part VI - For the Feast of Epiphany: no. 57 Aria: "Nur ein Wink von seinen Händen"
TTITLE22=Christmas Oratorio, BWV 248: Part VI - For the Feast of Epiphany: no. 58 Recitative: "Als sie nun den König gehöret 
TTITLE22=hatten"
TTITLE23=Christmas Oratorio, BWV 248: Part VI - For the Feast of Epiphany: no. 59 Chorale: "Ich steh an deiner Krippen hier"
TTITLE24=Christmas Oratorio, BWV 248: Part VI - For the Feast of Epiphany: no. 60 Recitative: "Und Gott befahl ihnen im Traum"
TTITLE25=Christmas Oratorio, BWV 248: Part VI - For the Feast of Epiphany: no. 61 Recitative: "So geht! Genug, mein Schatz 
TTITLE25=geht nicht von hie"
TTITLE26=Christmas Oratorio, BWV 248: Part VI - For the Feast of Epiphany: no. 62 Aria: "Nun mögt ihr stolzen Feinde 
TTITLE26=schrecken"
TTITLE27=Christmas Oratorio, BWV 248: Part VI - For the Feast of Epiphany: no. 63 Recitative: "Was will der Höllen Schrecken 
TTITLE27=nun"
TTITLE28=Christmas Oratorio, BWV 248: Part VI - For the Feast of Epiphany: no. 64 Choral: "Nun seid ihr wohl gerochen"
EXTD=
EXTT0=
EXTT1=
EXTT2=
EXTT3=
EXTT4=
EXTT5=
EXTT6=
EXTT7=
EXTT8=
EXTT9=
EXTT10=
EXTT11=
EXTT12=
EXTT13=
EXTT14=
EXTT15=
EXTT16=
EXTT17=
EXTT18=
EXTT19=
EXTT20=
EXTT21=
EXTT22=
EXTT23=
EXTT24=
EXTT25=
EXTT26=
EXTT27=
EXTT28=
PLAYORDER=
.
